<?xml version="1.0" standalone="no"?>
<!DOCTYPE svg PUBLIC "-//W3C//DTD SVG 20010904//EN"
 "http://www.w3.org/TR/2001/REC-SVG-20010904/DTD/svg10.dtd">
<svg version="1.0" xmlns="http://www.w3.org/2000/svg"
 width="860.000000pt" height="879.000000pt" viewBox="0 0 860.000000 879.000000"
 preserveAspectRatio="xMidYMid meet">
<metadata>
Created by potrace 1.16, written by Peter Selinger 2001-2019
</metadata>
<g transform="translate(0.000000,879.000000) scale(0.100000,-0.100000)"
fill="#000000" stroke="none">
<path d="M2979 8351 l-24 -19 85 -84 c135 -132 283 -318 274 -343 -6 -14 -185
-11 -284 5 -30 4 -126 9 -212 10 -157 1 -198 -6 -198 -34 0 -13 86 -87 169
-146 25 -18 36 -34 36 -50 0 -22 -6 -26 -41 -30 -23 -4 -55 -17 -72 -30 -17
-14 -52 -41 -79 -60 -69 -49 -136 -120 -153 -160 -8 -19 -34 -58 -59 -87 -51
-56 -170 -143 -198 -143 -10 0 -43 -15 -74 -34 -30 -18 -69 -36 -85 -39 -16
-2 -55 -11 -86 -18 -47 -11 -66 -11 -108 0 -40 10 -54 10 -65 1 -8 -7 -15 -16
-15 -19 0 -14 181 -151 208 -157 15 -3 45 -12 67 -19 22 -8 79 -17 127 -20 49
-4 90 -10 92 -14 3 -4 -1 -28 -9 -53 -9 -33 -33 -65 -87 -120 -88 -90 -172
-159 -216 -177 -41 -17 -41 -41 0 -71 28 -21 34 -22 62 -10 17 7 47 15 66 18
19 2 44 11 55 18 11 8 28 14 38 14 10 0 31 9 46 19 51 36 139 81 160 81 51 0
-2 -113 -144 -310 -11 -16 -42 -61 -70 -102 -62 -92 -224 -258 -252 -258 -26
0 -47 -25 -39 -45 5 -14 25 -15 138 -12 143 5 193 12 276 42 60 22 85 14 90
-26 2 -13 9 -51 17 -85 9 -36 15 -110 15 -187 0 -84 5 -139 13 -160 8 -18 17
-50 21 -71 13 -67 62 -151 133 -226 37 -40 102 -109 143 -153 44 -46 92 -87
116 -98 23 -11 49 -30 58 -43 17 -26 134 -124 174 -145 13 -7 47 -30 75 -52
29 -21 57 -39 62 -39 19 0 84 -68 91 -94 11 -46 -4 -70 -93 -146 -163 -140
-187 -167 -250 -272 -33 -57 -67 -116 -75 -133 -9 -16 -27 -52 -42 -80 -15
-27 -47 -92 -72 -143 -25 -51 -56 -109 -69 -128 -13 -19 -31 -58 -41 -87 -9
-29 -21 -58 -27 -65 -6 -8 -19 -37 -29 -65 -16 -46 -18 -91 -16 -536 4 -907 4
-916 -11 -934 -9 -12 -30 -17 -65 -18 -54 0 -133 -32 -147 -59 -62 -121 -78
-169 -85 -252 -4 -49 -10 -88 -14 -88 -14 0 -20 31 -27 121 -5 78 -8 89 -25
89 -33 0 -41 -45 -23 -134 9 -45 25 -103 36 -129 20 -48 24 -142 5 -142 -4 0
-19 36 -32 80 -14 44 -30 94 -36 110 -6 17 -16 75 -21 130 -11 102 -16 115
-52 115 -11 0 -48 27 -83 60 -42 40 -71 60 -87 60 -32 0 -32 -21 1 -51 90 -83
142 -148 150 -187 11 -53 -13 -43 -57 26 -57 88 -117 152 -135 145 -22 -8 -17
-25 26 -76 21 -27 54 -74 71 -105 18 -31 38 -64 46 -73 7 -9 23 -42 34 -75 11
-32 27 -71 35 -87 16 -31 10 -91 -9 -84 -5 1 -18 30 -27 63 -9 32 -33 91 -54
129 -21 39 -48 88 -59 110 -32 62 -96 124 -157 153 -30 14 -65 34 -77 45 -26
23 -57 19 -61 -9 -2 -17 21 -39 107 -103 60 -44 122 -98 138 -118 36 -47 73
-110 73 -125 0 -6 6 -19 14 -27 18 -21 31 -81 17 -81 -6 0 -17 15 -26 32 -52
114 -230 285 -315 303 -54 11 -61 21 -54 74 5 36 2 50 -10 60 -9 8 -20 11 -24
7 -11 -12 -32 -87 -47 -171 -26 -146 -34 -179 -64 -273 -17 -51 -31 -106 -31
-123 0 -30 -23 -50 -40 -33 -15 15 -93 350 -91 389 1 11 -3 38 -9 60 -6 22
-15 76 -20 120 -6 44 -13 94 -16 112 -5 26 -2 34 21 49 25 17 29 17 76 0 42
-16 67 -17 162 -11 106 6 113 5 131 -14 27 -30 158 -30 215 -1 41 22 81 20
102 -6 14 -17 89 -18 179 -2 36 6 97 13 135 14 39 2 97 7 130 13 155 26 150
17 150 240 0 97 -6 214 -13 260 -10 67 -11 147 -3 380 6 163 8 328 5 366 -4
42 0 111 9 175 9 58 16 176 17 264 0 137 -2 164 -19 200 -11 22 -34 73 -51
111 -30 68 -74 124 -115 148 -11 7 -78 14 -150 17 l-130 5 -3 133 -3 134 31
26 c55 47 84 82 110 129 35 64 71 76 240 77 l135 1 3 95 3 95 -36 39 c-35 38
-36 39 -91 33 -36 -4 -85 -20 -139 -46 -63 -31 -95 -41 -133 -41 -28 0 -64 -7
-81 -15 -17 -8 -45 -22 -62 -30 -17 -8 -37 -15 -45 -15 -8 0 -33 -10 -54 -23
-62 -35 -73 -76 -79 -307 l-6 -195 -25 -4 c-30 -4 -40 -17 -40 -53 0 -24 -4
-27 -47 -33 -27 -3 -59 -8 -73 -12 -14 -3 -94 -8 -177 -12 -181 -8 -204 -18
-213 -92 -8 -67 -11 -69 -106 -69 -47 0 -94 -5 -105 -11 -11 -5 -31 -36 -45
-67 -52 -115 -67 -147 -78 -162 -7 -8 -18 -33 -25 -55 -21 -63 -79 -181 -96
-195 -9 -8 -23 -27 -32 -44 -8 -17 -32 -53 -52 -81 -44 -61 -54 -77 -83 -135
-21 -42 -23 -62 -28 -275 -4 -190 -8 -237 -23 -270 -50 -113 -57 -134 -57
-177 0 -22 4 -57 9 -77 22 -86 34 -221 42 -470 5 -178 12 -286 22 -326 66
-263 77 -317 77 -366 0 -24 9 -77 20 -118 11 -41 20 -93 20 -115 0 -23 5 -57
10 -76 6 -19 15 -97 22 -172 l11 -138 28 0 c22 0 30 6 35 25 9 35 -2 158 -26
285 -28 157 -50 311 -50 348 0 28 -42 216 -80 363 -6 20 -10 55 -10 78 0 41 1
42 27 37 85 -16 162 -17 227 -2 63 15 71 15 78 1 5 -8 15 -15 23 -15 20 0 80
55 106 96 12 20 25 32 29 27 4 -4 10 -37 13 -73 8 -90 32 -238 57 -345 11 -49
25 -117 31 -150 12 -70 38 -164 50 -185 5 -8 20 -40 34 -70 14 -30 29 -62 35
-70 5 -8 16 -29 24 -46 8 -17 19 -35 25 -38 6 -4 11 -14 11 -23 0 -8 22 -62
50 -119 27 -57 50 -108 50 -114 0 -5 16 -10 35 -10 45 0 46 19 5 80 -34 50
-36 60 -16 60 18 0 79 -68 97 -108 15 -34 59 -47 59 -17 0 45 -76 145 -150
200 -46 34 -118 121 -108 131 5 4 134 -79 213 -138 99 -74 128 -103 153 -155
17 -35 32 -53 44 -53 22 0 22 18 0 90 -11 35 -25 59 -39 66 -54 26 -169 174
-135 174 10 0 91 -89 122 -133 26 -38 82 -59 101 -40 6 6 10 47 11 92 1 44 5
81 9 81 17 0 40 -59 30 -77 -15 -27 -30 -102 -37 -182 -6 -67 -6 -71 13 -71
23 0 26 8 48 130 7 41 25 107 40 145 35 91 46 163 48 313 2 95 5 125 17 132
20 12 26 6 44 -47 21 -60 21 -210 1 -288 -9 -32 -15 -74 -15 -94 0 -20 -4 -74
-9 -121 -5 -47 -10 -104 -10 -128 l-1 -42 516 0 c284 0 514 3 510 7 -3 3 1 11
10 18 10 7 19 38 25 86 11 96 33 176 55 201 14 14 16 23 8 36 -13 20 -52 28
-67 13 -15 -15 -46 -138 -47 -186 -1 -82 -13 -145 -26 -145 -8 0 -15 1 -15 3
-6 9 -6 707 -1 707 4 0 22 -9 40 -20 62 -38 153 -20 325 66 103 52 147 82 147
100 0 26 -22 24 -92 -12 -76 -38 -126 -61 -191 -89 -28 -12 -61 -16 -120 -14
-45 2 -89 1 -97 -2 -19 -5 -20 8 -9 336 4 143 10 359 13 480 3 121 10 236 16
255 6 19 15 118 20 220 5 102 14 221 20 265 5 44 14 120 20 169 5 49 15 95 21
102 15 18 60 18 85 -1 10 -8 27 -15 37 -15 17 0 80 -31 138 -67 30 -19 59 -12
59 14 -1 29 -228 163 -277 163 -12 0 -25 4 -28 10 -3 5 1 51 9 102 8 51 18
128 21 171 6 72 42 173 125 352 18 39 32 206 25 298 -7 85 -13 118 -30 160
-12 29 9 19 75 -33 34 -28 90 -64 124 -81 35 -17 83 -54 112 -85 67 -69 93
-72 123 -11 12 25 20 60 19 87 -1 81 19 130 53 130 24 0 24 -11 -1 -60 -11
-22 -20 -56 -20 -77 0 -37 -17 -100 -48 -176 -14 -34 -14 -39 1 -54 17 -17 45
-12 51 9 2 7 11 38 20 68 8 30 18 85 22 122 3 37 10 70 15 73 4 3 13 24 19 46
12 43 37 49 33 8 -3 -28 -38 -195 -54 -254 -6 -22 -12 -56 -13 -75 -1 -29 3
-36 21 -38 26 -4 29 3 62 113 12 39 21 96 21 128 0 32 7 74 15 94 8 19 15 46
15 59 0 12 10 30 22 38 44 31 47 20 22 -94 -39 -184 -66 -296 -76 -307 -14
-17 -6 -54 14 -67 25 -15 45 8 57 64 5 25 14 63 19 85 6 22 18 78 27 125 9 47
21 103 27 125 5 22 12 52 15 67 6 29 58 65 69 47 3 -6 -1 -31 -9 -57 -9 -26
-25 -85 -37 -132 -35 -141 -51 -193 -73 -237 -17 -35 -19 -46 -9 -67 6 -14 18
-26 25 -26 17 0 47 32 47 49 0 7 6 25 13 39 55 107 60 121 55 147 -3 15 2 62
12 104 10 42 21 99 25 126 11 83 16 95 47 111 42 22 53 3 27 -47 -10 -21 -19
-48 -19 -60 0 -11 -7 -51 -15 -88 -8 -36 -19 -91 -25 -121 -18 -89 -26 -121
-59 -210 -34 -93 -39 -140 -17 -140 18 0 56 47 56 70 0 9 14 55 31 101 17 46
39 127 50 179 38 189 41 204 49 220 16 33 30 88 30 121 0 36 32 79 58 79 14 0
16 -32 3 -45 -6 -6 -14 -35 -20 -65 -19 -114 -34 -177 -51 -225 -9 -27 -22
-72 -27 -100 -11 -51 -32 -127 -52 -180 -6 -16 -18 -57 -26 -90 -9 -33 -26
-78 -37 -101 -17 -33 -19 -44 -9 -63 15 -28 42 -24 57 9 54 115 64 145 64 189
0 26 3 51 7 55 8 7 20 50 47 166 16 71 44 126 57 113 11 -11 -2 -149 -19 -198
-34 -101 -52 -167 -52 -190 0 -15 -6 -39 -14 -53 -25 -46 -50 -145 -51 -197 0
-43 3 -50 20 -50 14 0 21 8 23 25 3 24 28 115 58 210 8 25 14 62 14 83 0 20 4
37 9 37 12 0 21 -37 21 -88 0 -47 19 -100 42 -120 13 -10 16 -41 16 -178 0
-107 5 -176 12 -195 7 -16 10 -32 7 -35 -9 -10 -151 -44 -182 -44 -16 0 -61
-16 -99 -35 -39 -19 -76 -35 -83 -35 -7 0 -21 -4 -31 -8 -9 -5 -30 -15 -47
-23 -37 -18 -45 -53 -15 -69 17 -9 30 -6 77 19 31 17 61 31 66 31 5 0 21 8 35
18 34 24 166 62 213 62 19 0 40 5 46 11 24 24 40 2 46 -63 3 -34 17 -102 31
-151 24 -81 26 -101 26 -292 l0 -205 -141 -138 c-136 -132 -143 -137 -184
-137 -32 -1 -52 -8 -80 -30 -64 -51 -99 -75 -110 -75 -5 0 -19 13 -30 28 -17
23 -20 43 -20 142 l0 115 -28 13 c-40 19 -75 3 -115 -56 -18 -26 -48 -65 -67
-86 -27 -33 -36 -38 -48 -28 -8 7 -18 26 -21 42 -3 17 -9 44 -12 61 -5 24 -1
36 21 59 19 20 25 34 20 49 -3 12 -11 21 -16 21 -5 0 -19 16 -31 36 -16 28
-26 34 -47 32 -30 -4 -103 -100 -201 -266 -69 -115 -70 -116 -169 -85 -45 15
-70 32 -129 90 -40 40 -77 73 -81 73 -5 0 -14 -7 -21 -15 -11 -13 -10 -22 2
-49 17 -36 121 -119 178 -143 19 -8 53 -23 75 -32 53 -24 108 -41 127 -41 33
0 49 29 43 74 -5 33 -2 47 14 68 12 14 21 32 21 39 0 24 85 149 101 149 13 0
17 -13 21 -63 6 -68 26 -116 66 -160 47 -49 75 -34 157 83 37 52 62 80 74 80
3 0 6 -52 6 -116 l0 -116 44 -39 c24 -21 50 -39 59 -39 8 0 40 19 69 42 47 36
57 40 74 30 10 -7 27 -12 37 -12 11 0 73 56 147 133 125 128 157 156 183 157
15 0 17 -403 2 -592 -5 -68 -11 -252 -13 -411 -2 -158 -7 -290 -10 -293 -3 -3
-23 6 -44 20 -46 32 -69 33 -79 4 -5 -17 1 -28 27 -49 19 -16 43 -29 54 -29
40 0 45 -18 45 -150 l0 -126 -35 -34 c-24 -23 -35 -43 -35 -62 0 -15 -2 -28
-5 -28 -15 0 -115 85 -113 95 2 7 36 40 76 74 52 46 72 69 72 87 0 45 -38 29
-117 -51 -41 -41 -78 -75 -82 -75 -4 0 -18 11 -31 25 -30 32 -65 32 -86 0 -21
-33 -24 -145 -5 -203 12 -36 18 -42 43 -42 15 0 28 1 28 3 0 1 -7 38 -14 82
-15 81 -14 95 7 95 16 0 191 -149 195 -166 3 -11 103 -13 581 -14 l578 0 12
52 c14 61 10 390 -7 498 -14 89 -62 301 -80 355 -56 161 -58 308 -5 465 22 66
54 161 66 193 9 26 13 28 46 22 43 -7 378 -169 453 -219 47 -31 116 -82 206
-152 15 -12 43 -29 62 -39 19 -9 51 -29 70 -44 34 -25 47 -33 119 -76 19 -11
54 -35 79 -54 25 -18 68 -45 96 -59 61 -31 187 -114 205 -136 8 -9 19 -16 25
-16 7 0 30 -15 52 -33 21 -18 62 -50 91 -71 57 -43 64 -55 89 -169 15 -66 16
-84 5 -120 -7 -23 -18 -64 -26 -92 -13 -47 -37 -114 -63 -178 -7 -15 -14 -39
-17 -52 -3 -14 -7 -36 -10 -50 -5 -23 -2 -25 27 -25 32 0 34 4 65 78 77 183
104 281 113 396 4 61 11 120 15 132 8 26 -35 81 -80 99 -16 7 -47 26 -67 42
-101 76 -308 211 -402 261 -45 24 -85 50 -89 58 -4 8 -14 14 -22 14 -7 0 -33
15 -57 32 -24 18 -63 44 -88 57 -46 24 -73 43 -190 129 -36 26 -82 58 -103 71
-21 12 -43 28 -50 35 -12 13 -23 18 -170 93 -49 24 -107 58 -129 74 -23 16
-47 29 -53 29 -7 0 -18 7 -25 15 -7 8 -22 15 -33 15 -11 0 -42 14 -69 31 -27
17 -55 28 -63 25 -16 -6 -95 -167 -95 -193 0 -8 -16 -49 -35 -90 -21 -46 -35
-90 -35 -114 0 -21 -4 -39 -10 -39 -5 0 -10 9 -10 20 0 21 -64 227 -86 275
-20 46 -54 165 -54 192 0 14 -5 33 -11 44 -14 27 -46 241 -54 364 -4 55 -13
129 -20 165 -7 36 -20 99 -29 140 -9 41 -18 113 -21 160 -7 101 -31 248 -51
309 -7 24 -11 47 -8 52 7 12 41 12 48 0 8 -13 84 -51 101 -51 8 0 36 -10 62
-21 56 -26 78 -35 118 -50 17 -6 93 -15 170 -20 149 -8 225 -27 355 -86 58
-26 82 -48 194 -169 130 -140 146 -164 146 -211 0 -41 131 -163 288 -269 29
-19 83 -64 120 -99 38 -35 93 -80 123 -100 66 -45 241 -135 262 -135 27 0 170
-79 207 -114 19 -18 62 -53 95 -78 33 -25 123 -111 200 -191 77 -80 183 -183
235 -229 164 -143 230 -216 251 -277 31 -90 26 -138 -27 -244 -26 -50 -63
-121 -84 -157 -21 -36 -71 -130 -113 -210 -41 -80 -87 -165 -101 -190 -34 -60
-33 -70 9 -70 25 0 35 4 35 16 0 8 23 53 50 100 28 47 50 88 50 91 0 4 8 16
18 27 10 12 29 46 42 76 14 30 45 87 70 125 24 39 60 99 79 135 18 36 42 81
52 100 40 74 7 255 -64 357 -33 46 -150 157 -317 300 -69 59 -162 142 -208
185 -46 43 -113 98 -150 123 -37 24 -76 51 -87 58 -68 47 -152 97 -163 97 -28
0 -208 93 -276 143 -146 107 -436 371 -483 441 -15 22 -75 91 -132 151 -57 61
-117 128 -133 149 -32 45 -113 96 -207 133 -37 14 -75 29 -86 34 -105 41 -156
51 -285 56 l-135 5 -105 51 c-203 99 -239 129 -240 196 0 23 -15 94 -42 199
-18 71 -193 349 -304 484 -90 109 -141 156 -201 184 -32 15 -53 32 -53 42 0
14 50 69 288 316 44 45 114 103 162 134 85 55 208 172 259 247 45 66 61 122
61 216 0 104 10 118 56 83 l33 -25 22 25 c19 21 29 25 54 20 22 -4 35 -1 45
11 11 13 9 20 -12 43 -37 39 -109 298 -94 337 8 22 32 18 74 -10 20 -14 42
-25 49 -25 18 0 89 -39 104 -56 6 -8 16 -14 22 -14 6 0 18 -6 26 -14 27 -24
60 -29 67 -11 4 10 -9 34 -36 66 -43 51 -72 112 -95 204 -8 28 -21 73 -30 100
-10 28 -22 64 -27 80 -6 17 -12 41 -15 55 -2 14 -17 50 -33 80 -89 172 -101
201 -89 216 6 8 26 14 44 14 18 0 52 7 76 16 24 9 64 19 89 22 35 6 45 11 45
26 0 10 -7 22 -15 26 -8 4 -31 15 -50 24 -20 9 -63 41 -97 71 -33 30 -80 65
-104 77 -66 34 -200 149 -197 167 2 11 19 18 58 21 30 3 65 11 77 18 12 7 33
12 46 12 49 0 71 58 33 89 -8 7 -67 11 -150 12 -134 0 -136 1 -136 23 0 12 11
33 24 45 13 13 38 51 56 87 17 35 35 66 40 69 6 4 10 42 10 86 0 67 -2 79 -17
79 -9 0 -25 -8 -35 -17 -29 -26 -111 -37 -269 -35 l-147 1 -61 36 c-33 20 -65
43 -70 53 -5 9 -12 44 -15 77 -4 33 -13 85 -21 115 -7 30 -19 107 -26 170 -13
126 -23 164 -41 158 -7 -3 -18 -23 -24 -45 -7 -23 -37 -84 -68 -136 -31 -52
-56 -99 -56 -104 0 -5 -22 -30 -48 -56 -42 -41 -53 -47 -90 -47 -43 0 -102 23
-102 40 0 5 -6 15 -14 22 -8 8 -29 41 -47 74 -18 32 -39 66 -46 75 -8 9 -31
59 -53 110 -37 91 -55 111 -70 79 -4 -8 -21 -46 -39 -83 -17 -37 -38 -70 -46
-73 -17 -7 -52 4 -130 41 -97 45 -186 75 -224 75 -21 0 -67 9 -102 19 -35 10
-84 22 -109 25 -25 4 -58 11 -75 17 -231 76 -284 84 -326 50z m521 -911 c0
-21 5 -52 11 -67 32 -79 49 -117 106 -232 34 -69 81 -155 105 -191 24 -36 68
-104 98 -150 30 -47 81 -121 113 -165 99 -137 137 -196 137 -214 0 -10 7 -24
15 -31 8 -7 15 -19 15 -26 0 -8 11 -20 25 -26 21 -9 29 -9 42 5 15 15 15 19 0
54 -9 21 -21 69 -27 107 -6 38 -13 73 -15 76 -7 11 -7 782 0 789 10 9 43 -40
51 -74 4 -16 10 -36 15 -45 19 -38 49 -109 65 -155 23 -69 141 -320 223 -472
17 -33 0 -54 -29 -35 -11 6 -29 12 -40 12 -11 0 -43 9 -72 20 -47 18 -54 18
-68 5 -44 -44 97 -94 270 -96 47 0 106 -3 131 -6 l45 -4 17 -67 c32 -125 36
-135 56 -156 17 -16 25 -18 39 -10 14 9 17 28 18 105 1 52 2 100 3 107 2 23
31 12 43 -15 6 -16 23 -55 38 -88 16 -33 40 -98 54 -143 14 -46 31 -93 38
-105 6 -12 12 -83 14 -165 2 -104 8 -157 20 -191 14 -40 15 -59 6 -122 -6 -41
-20 -105 -32 -144 -11 -38 -27 -92 -34 -120 -13 -51 -55 -166 -81 -220 -8 -16
-26 -61 -40 -98 -15 -43 -44 -91 -75 -129 -27 -33 -50 -65 -50 -70 0 -16 -183
-186 -259 -240 -72 -53 -235 -138 -262 -138 -9 0 -30 -7 -45 -15 -16 -8 -39
-15 -52 -15 -12 0 -34 -7 -48 -16 -44 -29 -323 -11 -439 28 -16 5 -50 14 -74
19 -25 5 -52 16 -61 24 -9 8 -25 15 -34 15 -10 0 -30 6 -44 14 -15 7 -47 23
-72 35 -83 40 -130 67 -157 92 -16 14 -44 36 -63 50 -19 13 -51 38 -70 56 -19
18 -38 33 -42 33 -11 0 -78 74 -78 86 0 7 -20 47 -45 90 -24 44 -50 104 -56
134 -6 30 -18 67 -25 82 -8 15 -14 38 -14 51 0 13 -15 53 -34 88 -31 58 -41
99 -71 269 -18 99 -33 337 -28 435 8 158 62 458 87 483 30 30 35 2 35 -186 0
-103 3 -195 6 -204 8 -21 55 -24 73 -6 16 16 15 59 -3 82 -35 46 -12 200 48
327 15 31 27 60 27 64 0 4 19 56 42 114 80 204 172 362 298 511 66 78 145 182
159 208 6 12 21 22 31 22 17 0 20 -7 20 -40z m996 -377 c14 -32 47 -101 73
-153 56 -112 119 -265 123 -300 3 -24 1 -25 -65 -28 l-68 -3 -14 35 c-8 20
-15 48 -15 63 0 16 -6 38 -14 49 -8 11 -17 42 -21 69 -4 28 -13 77 -21 110 -7
33 -16 95 -20 138 -8 95 6 102 42 20z m802 -1321 c40 -26 34 -272 -8 -332 -11
-15 -20 -33 -20 -38 0 -23 -207 -218 -259 -245 -30 -15 -56 -25 -59 -23 -6 6
129 151 199 214 69 62 75 75 50 116 -32 51 -23 126 14 126 11 0 15 -13 15 -53
0 -52 12 -77 37 -77 10 0 13 26 13 110 0 132 -8 141 -70 81 -24 -23 -46 -41
-49 -41 -4 0 -20 -27 -36 -60 -16 -33 -32 -60 -37 -60 -26 0 19 134 57 170 14
13 39 45 56 72 31 49 63 61 97 40z m-2736 -200 c78 -95 112 -144 146 -211 55
-110 20 -91 -64 36 -44 65 -86 118 -94 118 -27 0 -21 -41 14 -103 20 -33 36
-65 36 -70 0 -6 16 -30 36 -54 20 -23 47 -60 60 -80 13 -20 57 -75 99 -123 76
-87 86 -105 61 -105 -20 0 -268 272 -293 322 -48 94 -62 136 -74 214 -20 131
-1 146 73 56z m2588 -134 c0 -22 -54 -78 -76 -78 -20 0 -18 6 17 60 32 49 59
57 59 18z m-2619 -619 c27 -19 30 -25 27 -73 l-3 -51 -135 -8 c-98 -6 -139
-12 -151 -23 -29 -26 -59 -14 -75 31 -7 22 -14 41 -14 43 0 1 10 2 23 2 37 0
140 30 167 48 19 13 103 46 128 51 2 1 17 -8 33 -20z m-391 -130 c4 -8 12 -24
18 -36 15 -28 15 -43 2 -43 -14 0 -62 79 -54 91 8 13 26 7 34 -12z m-65 -66
c44 -71 48 -84 30 -102 -14 -14 -20 -10 -60 34 -49 56 -49 54 -35 89 14 38 31
32 65 -21z m1380 -109 c11 -8 28 -14 38 -14 21 0 34 -27 19 -42 -12 -12 -51 6
-70 34 -7 10 -22 18 -32 18 -20 0 -33 13 -23 24 8 8 41 -2 68 -20z m-1431 -22
c11 -21 15 -71 17 -187 2 -175 -1 -185 -56 -171 l-27 7 6 92 c4 51 9 130 12
177 3 47 7 91 9 98 7 20 24 14 39 -16z m1601 -32 c10 -15 -6 -80 -19 -80 -14
0 -35 58 -28 78 4 14 38 16 47 2z m93 -33 c14 -17 3 -97 -13 -97 -20 0 -33 22
-33 55 0 46 24 69 46 42z m109 -34 c-4 -16 -12 -56 -18 -91 -15 -78 -33 -76
-37 5 -4 74 10 113 39 113 18 0 20 -4 16 -27z m-1897 -316 c19 0 41 -6 48 -14
17 -17 27 -16 42 2 17 21 30 19 30 -4 0 -29 30 -35 63 -11 26 20 39 21 139 18
l110 -3 34 -40 c18 -22 54 -80 80 -130 l46 -90 5 -140 c4 -100 1 -171 -11
-248 -11 -78 -16 -179 -16 -365 0 -141 -5 -306 -10 -367 -9 -90 -7 -131 6
-225 10 -63 19 -174 21 -247 4 -121 2 -134 -16 -152 -27 -27 -116 -35 -324
-28 -95 3 -293 9 -442 12 -148 3 -288 11 -309 16 -27 7 -54 27 -83 57 l-43 47
-2 98 c-4 184 -6 170 22 177 22 6 25 11 25 56 l0 49 67 3 c69 3 106 -10 188
-68 26 -18 120 -63 155 -75 19 -6 19 -7 -3 -24 -13 -9 -43 -23 -68 -30 -40
-12 -49 -12 -78 4 -43 23 -68 10 -90 -48 -15 -39 -25 -49 -82 -78 -90 -46 -99
-84 -27 -114 53 -22 80 -18 124 17 42 34 91 42 149 25 46 -13 58 9 44 79 -5
27 -1 34 39 67 38 31 53 37 91 37 54 0 120 -36 138 -75 10 -21 7 -28 -21 -54
-40 -37 -38 -65 5 -69 24 -2 37 4 62 33 37 40 46 42 87 15 58 -39 165 -13 165
40 0 24 -18 37 -73 52 -51 13 -66 34 -46 66 31 49 -29 71 -71 27 -27 -28 -57
-32 -86 -10 -10 8 -29 15 -41 15 -12 0 -24 4 -28 9 -3 5 52 67 123 138 137
138 206 238 200 291 -5 46 -33 39 -71 -20 -40 -63 -142 -184 -161 -191 -9 -4
-12 0 -9 13 3 11 -4 35 -16 53 -29 48 -28 114 4 182 15 31 34 55 45 58 26 7
43 53 36 97 -7 43 -1 52 45 74 20 9 48 35 63 57 22 34 26 52 26 109 0 66 -1
68 -40 104 -42 38 -58 38 -92 4 -23 -23 -49 -23 -81 2 -14 11 -36 20 -49 20
-30 0 -68 26 -68 47 0 13 10 15 55 11 65 -5 81 6 66 46 -7 16 -21 28 -38 32
-15 3 -32 7 -38 8 -6 2 -10 82 -10 217 0 209 0 214 -21 217 -34 5 -49 -24 -49
-97 -1 -54 -4 -67 -18 -69 -37 -7 -49 18 -42 83 5 47 3 64 -8 73 -33 28 -67
-15 -67 -86 0 -73 -36 -82 -67 -17 -14 30 -15 41 -5 67 8 23 9 35 1 45 -17 19
-47 16 -59 -7 -7 -13 -21 -20 -38 -20 -22 0 -30 7 -39 31 -16 41 -56 38 -61
-3 -4 -36 -35 -37 -58 -3 -17 26 -12 79 9 92 7 4 86 11 177 14 91 4 183 12
205 17 22 6 54 8 70 4 17 -3 46 -5 65 -5z m-513 -206 c58 -41 178 -102 245
-125 15 -4 17 -13 12 -49 -6 -42 -5 -44 46 -90 l52 -47 -23 -20 c-35 -29 -67
-24 -117 17 l-46 37 -106 2 c-58 0 -115 6 -127 13 -32 16 -78 13 -95 -6 -9
-10 -23 -32 -32 -50 -16 -32 -70 -81 -240 -218 -104 -83 -128 -97 -164 -93
l-27 3 36 40 c19 22 49 63 67 90 17 28 47 63 67 78 27 22 35 35 35 60 0 18 4
37 9 43 6 5 24 45 41 89 60 152 101 225 129 231 14 3 35 9 46 14 11 4 50 8 87
8 58 0 73 -4 105 -27z m400 -194 c-7 -49 -9 -50 -41 -36 -32 15 -34 44 -4 76
30 32 52 13 45 -40z m-236 -173 c23 -24 173 -104 196 -104 6 0 16 -7 23 -15 7
-8 25 -15 41 -15 33 0 33 2 33 -109 l1 -85 44 -11 c50 -12 75 -40 51 -55 -23
-15 -52 -12 -88 10 -18 11 -42 20 -54 20 -12 0 -38 17 -58 39 -30 31 -50 42
-106 55 -38 9 -82 23 -99 30 -103 46 -234 61 -292 32 -102 -51 -263 -126 -270
-126 -22 0 -81 -52 -87 -77 -9 -36 -147 -243 -158 -237 -14 9 -8 74 9 101 27
40 45 93 47 139 3 51 6 55 53 79 21 10 65 42 98 71 88 76 215 164 235 164 9 0
25 9 36 21 10 12 31 27 45 35 15 7 30 25 33 39 6 25 6 25 124 25 115 0 119 -1
143 -26z m265 -6 c4 -28 -20 -51 -44 -44 -26 9 -28 23 -5 48 20 22 45 20 49
-4z m169 -208 c9 -15 -22 -80 -39 -80 -44 0 -55 19 -34 65 8 18 19 25 39 25
15 0 30 -4 34 -10z m135 -39 c0 -47 -7 -53 -49 -45 -38 8 -43 43 -8 67 40 28
57 22 57 -22z m-571 -59 c46 -17 96 -42 110 -55 25 -23 113 -68 159 -82 32 -9
27 -36 -13 -75 -42 -41 -42 -69 -2 -88 29 -14 37 -42 11 -42 -9 0 -37 11 -63
24 -89 46 -244 108 -283 114 -110 14 -377 -88 -450 -173 -26 -30 -48 -45 -74
-49 -36 -7 -158 -83 -181 -114 -18 -23 -16 -59 7 -122 23 -62 59 -102 111
-124 31 -13 39 -13 55 -2 17 13 17 15 -6 50 -14 20 -30 36 -36 36 -17 0 -64
55 -64 76 0 39 68 112 124 134 15 5 48 10 72 10 53 0 84 14 84 38 0 10 7 28
16 40 13 19 22 22 46 17 29 -7 39 -2 140 67 33 22 57 23 106 3 24 -11 50 -14
74 -10 31 6 38 4 38 -9 0 -9 -8 -16 -18 -16 -25 0 -62 -28 -62 -48 0 -9 5 -34
10 -54 9 -32 17 -39 50 -49 44 -13 46 -17 26 -44 -12 -17 -17 -18 -53 -6 -36
12 -48 10 -144 -18 -105 -32 -159 -51 -214 -77 -16 -7 -52 -22 -80 -32 -54
-21 -66 -43 -41 -71 15 -17 13 -23 -39 -85 -30 -37 -55 -71 -55 -75 0 -4 -16
-15 -35 -24 -47 -23 -47 -54 1 -97 25 -21 44 -30 62 -28 25 3 27 7 32 63 6 70
30 111 121 212 67 74 87 89 99 77 14 -15 17 -487 4 -491 -7 -2 -14 7 -18 20
-10 43 -37 43 -74 0 -19 -21 -40 -53 -48 -72 -8 -18 -38 -56 -65 -83 l-50 -50
-107 3 c-59 2 -115 0 -124 -5 -17 -8 -18 1 -18 113 0 67 -7 163 -15 215 -8 52
-19 161 -24 242 -9 138 -8 152 10 187 11 22 29 67 41 100 11 34 33 76 48 92
15 17 31 40 35 53 23 78 246 312 342 360 33 16 75 33 92 37 17 3 34 11 37 16
3 6 47 9 107 7 84 -3 117 -10 186 -36z m461 -217 c0 -14 -4 -25 -10 -25 -5 0
-10 11 -10 25 0 14 5 25 10 25 6 0 10 -11 10 -25z m-94 -20 c7 -18 -13 -45
-33 -45 -19 0 -28 27 -13 45 16 19 39 19 46 0z m-316 -178 c0 -18 -38 -39 -61
-32 -10 4 -19 15 -19 26 0 16 7 19 40 19 25 0 40 -5 40 -13z m107 -133 c3 -10
-78 -74 -95 -74 -7 0 -12 9 -12 19 0 13 16 29 43 45 42 26 58 28 64 10z m177
-133 c18 -7 16 -11 -19 -34 -38 -26 -85 -34 -119 -21 -18 7 -21 30 -5 40 9 5
73 17 119 22 3 0 14 -3 24 -7z m-714 -559 c0 -18 -80 -129 -103 -144 -35 -22
-32 0 10 70 26 42 52 80 57 84 19 13 36 8 36 -10z m515 -337 c111 -69 210
-176 245 -265 44 -112 -3 -98 -84 26 -58 86 -185 211 -226 221 -34 8 -50 22
-50 44 0 31 37 23 115 -26z m-32 -113 c70 -56 119 -103 113 -110 -3 -3 -25 9
-49 26 -23 17 -70 45 -104 62 -43 21 -63 36 -63 48 0 10 3 21 6 25 9 8 50 -14
97 -51z m-41 -74 c24 -12 59 -34 79 -50 20 -15 42 -28 47 -28 22 0 120 -107
146 -158 26 -51 35 -109 16 -97 -6 3 -28 32 -49 64 -43 62 -140 165 -212 224
-31 25 -56 37 -78 37 -21 0 -31 5 -31 15 0 21 32 19 82 -7z m-47 -50 c14 -6
25 -15 25 -20 0 -4 7 -8 15 -8 8 0 15 -7 15 -15 0 -19 -14 -19 -30 0 -7 8 -26
19 -43 23 -32 8 -49 32 -23 32 8 0 27 -5 41 -12z m-39 -69 c3 -6 20 -19 38
-30 20 -12 25 -19 14 -19 -9 0 -20 5 -24 11 -3 6 -17 9 -30 6 -26 -5 -50 15
-39 33 8 13 32 13 41 -1z m-11 -69 c4 -6 37 -25 73 -42 72 -33 95 -49 156
-106 60 -55 24 -50 -49 7 -35 28 -69 51 -74 51 -5 0 -22 7 -37 15 -16 8 -44
15 -62 15 -18 0 -42 5 -53 10 -19 10 -26 40 -12 53 10 11 51 8 58 -3z m535
-70 c0 -38 -5 -38 -24 2 -21 41 -20 51 4 38 13 -7 20 -21 20 -40z m-82 7 c12
-18 22 -38 22 -45 0 -6 11 -28 25 -48 29 -42 42 -101 27 -116 -25 -25 -64 54
-79 157 -3 25 -12 50 -19 56 -8 6 -14 15 -14 20 0 18 16 8 38 -24z m-474 -61
c77 -43 86 -51 86 -72 0 -12 15 -35 35 -53 19 -17 35 -35 35 -41 0 -5 7 -10
15 -10 8 0 15 -4 15 -10 0 -12 -27 -14 -32 -2 -6 15 -115 81 -148 89 -25 7
-41 21 -63 56 -43 70 -21 87 57 43z m400 -121 c21 -28 24 -35 11 -35 -19 0
-67 49 -59 61 9 16 21 10 48 -26z m-37 -61 c-3 -3 -12 -4 -19 -1 -8 3 -5 6 6
6 11 1 17 -2 13 -5z m66 -84 c-3 -11 -11 -25 -19 -31 -12 -9 -14 -5 -14 23 0
19 3 38 7 41 11 12 31 -13 26 -33z m2757 -164 c-13 -40 -24 -44 -52 -19 -25
22 -23 30 14 53 41 25 54 13 38 -34z"/>
<path d="M3395 6607 c-42 -10 -178 -57 -255 -87 -25 -9 -80 -23 -123 -31 -81
-14 -104 -27 -93 -55 6 -14 18 -16 80 -11 40 3 82 10 92 15 11 5 46 20 79 32
33 12 80 30 105 40 25 9 80 28 123 41 66 20 77 27 77 46 0 26 -16 28 -85 10z"/>
<path d="M3737 6323 c-4 -3 -7 -55 -7 -116 0 -98 -3 -115 -28 -170 -16 -34
-32 -81 -35 -103 -6 -37 -3 -46 29 -88 25 -33 42 -46 59 -46 30 0 32 16 9 102
-8 33 -14 74 -12 92 3 29 5 31 43 31 53 0 60 28 16 64 -30 25 -30 27 -19 75
16 76 -9 166 -46 166 -2 0 -6 -3 -9 -7z"/>
<path d="M4324 6215 c-4 -9 3 -23 17 -34 20 -16 21 -21 10 -35 -9 -10 -29 -16
-56 -16 -83 0 -86 -54 -4 -75 24 -7 53 -17 64 -23 11 -7 72 -18 135 -26 134
-17 186 -28 217 -44 26 -15 70 -16 78 -2 10 17 -15 50 -43 56 -35 7 -96 40
-100 53 -7 22 28 22 58 1 16 -12 46 -24 65 -27 32 -5 35 -4 35 20 0 14 -7 27
-15 31 -8 3 -15 14 -15 24 0 33 -27 45 -170 72 -25 5 -62 16 -82 24 -51 22
-186 22 -194 1z m263 -86 c-14 -8 -22 -8 -30 0 -8 8 -3 11 19 11 25 -1 27 -2
11 -11z"/>
<path d="M3245 6186 c-44 -17 -90 -37 -102 -44 -12 -6 -30 -12 -40 -12 -26 -1
-155 -72 -167 -93 -9 -15 -6 -22 17 -41 19 -16 27 -31 27 -54 0 -42 25 -102
42 -102 8 0 56 22 108 50 52 27 103 53 114 56 12 4 26 11 33 16 6 5 37 12 67
15 39 4 70 15 102 37 69 45 76 62 39 91 -16 13 -38 25 -50 27 -13 2 -21 12
-23 30 -4 31 -36 59 -67 57 -11 -1 -56 -15 -100 -33z m85 -46 c0 -5 -5 -10
-11 -10 -11 0 -69 -25 -132 -56 -16 -8 -37 -14 -46 -14 -10 0 -26 -9 -36 -20
-10 -11 -26 -20 -35 -20 -9 0 -25 -7 -36 -15 -33 -25 -47 -18 -24 13 13 18 37
32 68 41 49 13 77 24 102 41 59 37 150 62 150 40z m-5 -100 c-3 -5 -15 -10
-26 -10 -11 0 -17 5 -14 10 3 6 15 10 26 10 11 0 17 -4 14 -10z m-175 -70 c0
-5 -9 -10 -21 -10 -11 0 -17 5 -14 10 3 6 13 10 21 10 8 0 14 -4 14 -10z"/>
<path d="M4221 5916 c-7 -8 -10 -20 -6 -26 9 -15 81 -50 102 -50 10 0 31 -7
47 -15 15 -8 48 -15 72 -15 36 0 49 -6 78 -35 41 -40 63 -38 68 8 3 30 6 32
53 38 45 6 52 4 71 -19 23 -28 50 -25 61 5 9 25 23 33 60 33 63 0 65 -11 5
-42 -31 -17 -63 -35 -69 -40 -16 -13 -17 -48 -1 -48 6 0 22 -10 35 -22 24 -22
24 -22 59 -3 32 17 36 17 51 2 13 -13 14 -19 5 -29 -31 -31 -3 -64 44 -52 28
7 31 30 8 55 -14 15 -13 19 15 39 37 26 38 33 9 60 -26 24 -51 26 -68 5 -7 -8
-22 -15 -34 -15 -12 0 -29 -9 -39 -20 -9 -11 -21 -20 -27 -20 -24 0 -6 21 55
61 36 24 65 51 65 60 0 8 -12 27 -27 42 -26 24 -33 25 -94 20 -52 -4 -68 -2
-78 11 -17 20 -57 21 -64 2 -4 -9 -29 -17 -71 -21 -63 -7 -67 -6 -87 19 -26
33 -52 33 -73 1 -13 -20 -21 -23 -49 -18 -17 3 -43 11 -57 18 -45 22 -105 28
-119 11z"/>
<path d="M2807 5772 c-19 -15 -45 -46 -58 -69 l-23 -42 32 -46 c18 -25 32 -52
32 -61 0 -25 19 -54 36 -54 8 0 22 17 30 38 28 67 75 132 96 132 18 0 16 -4
-13 -41 -30 -38 -33 -48 -35 -123 -2 -70 2 -90 27 -149 16 -37 33 -87 39 -110
15 -57 27 -86 82 -197 40 -80 61 -109 137 -184 94 -93 169 -146 306 -214 113
-56 177 -74 280 -79 205 -11 400 40 605 157 56 32 206 188 264 276 52 75 166
299 166 323 0 7 13 41 30 78 39 86 42 168 7 201 -30 28 -39 28 -66 -4 -20 -23
-24 -24 -39 -11 -9 8 -30 17 -47 21 -119 27 -169 34 -235 35 -41 1 -100 6
-130 11 -125 24 -286 32 -540 27 -222 -5 -276 -9 -330 -25 -36 -11 -78 -18
-93 -16 -15 1 -53 -6 -84 -17 -31 -10 -64 -19 -74 -19 -9 0 -30 -6 -46 -14
-95 -48 -192 -74 -204 -55 -7 12 -1 39 10 49 3 3 19 20 36 38 l29 33 -41 38
c-23 22 -43 48 -45 58 -2 12 -12 18 -33 18 -17 0 -40 6 -51 12 -18 11 -27 8
-57 -15z m53 -40 c0 -5 -16 -26 -35 -48 -28 -32 -34 -36 -35 -19 0 11 11 33
25 48 25 27 45 35 45 19z m60 -36 c0 -14 -29 -31 -38 -22 -2 3 -2 12 1 21 8
19 37 20 37 1z m-50 -43 c0 -5 -11 -21 -25 -38 -19 -23 -24 -26 -25 -12 0 23
22 57 37 57 7 0 13 -3 13 -7z m1255 -23 c90 -7 232 -32 239 -41 1 -2 7 -16 14
-31 9 -22 18 -28 41 -28 17 0 31 6 35 15 3 9 22 23 41 31 31 13 39 13 65 -1
17 -9 36 -31 44 -50 18 -42 43 -45 75 -9 26 30 46 20 46 -24 0 -40 33 -42 48
-3 6 17 18 31 25 31 26 0 5 -63 -30 -92 -18 -15 -45 -39 -59 -54 -33 -32 -49
-25 -42 20 8 49 -13 55 -51 15 l-31 -34 -165 2 c-102 1 -188 7 -226 16 -70 17
-344 14 -449 -5 -33 -5 -105 -14 -160 -18 -55 -4 -136 -17 -180 -30 -101 -28
-148 -39 -159 -40 -4 0 -23 16 -42 36 -51 56 -90 22 -48 -42 16 -23 16 -26 -2
-39 -10 -8 -31 -15 -46 -15 -22 0 -32 9 -57 57 -17 31 -31 64 -31 72 0 9 -7
25 -15 35 -21 27 -19 53 5 66 23 12 45 3 72 -29 26 -31 55 -26 74 12 24 48 75
97 101 97 13 0 29 -10 39 -25 24 -37 50 -31 104 25 27 28 52 50 57 50 4 0 35
5 68 11 120 22 437 32 600 19z m-217 -379 c-1 -5 -36 -35 -76 -66 -47 -36 -72
-63 -70 -73 5 -28 32 -24 69 8 18 16 61 50 94 75 33 25 65 49 72 55 15 13 43
13 43 1 0 -5 -19 -24 -42 -42 -54 -42 -98 -86 -98 -98 0 -29 43 -19 85 20 80
74 170 129 211 129 43 0 22 -25 -53 -61 -51 -25 -96 -66 -88 -79 11 -18 50
-11 85 15 19 14 38 25 43 25 5 0 29 14 54 30 94 64 106 23 13 -45 -41 -30 -48
-40 -39 -51 19 -23 37 -17 96 31 32 26 64 45 75 43 27 -4 25 -21 -6 -36 -35
-18 -35 -52 0 -52 14 0 39 8 55 17 28 17 29 16 56 -9 16 -14 40 -33 56 -43 34
-22 34 -32 -4 -78 -32 -39 -50 -45 -68 -24 -17 22 -311 30 -443 12 -58 -7
-184 -17 -279 -21 -97 -4 -190 -13 -211 -20 -20 -7 -69 -16 -108 -20 -39 -3
-73 -11 -76 -15 -8 -14 -51 -11 -57 4 -9 23 11 52 98 145 81 86 126 121 91 70
-20 -29 -20 -57 0 -65 11 -4 45 26 113 98 80 84 100 101 116 95 18 -7 16 -11
-21 -44 -53 -48 -68 -76 -50 -91 11 -9 24 -3 62 30 27 23 54 48 59 54 38 47
156 109 143 76z m477 -1 c3 -5 -3 -10 -14 -10 -12 0 -21 5 -21 10 0 6 6 10 14
10 8 0 18 -4 21 -10z m20 -357 c22 -4 40 -13 40 -20 0 -36 -206 -158 -305
-180 -14 -4 -34 -12 -45 -19 -46 -30 -278 -44 -400 -24 -53 8 -88 21 -145 51
-8 4 -52 27 -97 51 -46 23 -83 46 -83 50 0 14 36 26 115 37 44 7 105 16 135
21 30 6 132 13 225 17 99 3 185 12 205 19 39 15 285 13 355 -3z"/>
<path d="M3044 5645 c-4 -9 -2 -21 4 -27 15 -15 44 -1 40 19 -4 23 -36 29 -44
8z"/>
<path d="M2049 3929 c-20 -20 -21 -28 -14 -98 4 -42 9 -143 11 -224 5 -156 12
-187 45 -187 20 0 44 43 34 61 -4 5 -2 17 4 26 8 14 14 7 37 -42 33 -72 51
-95 74 -95 26 0 30 21 13 65 -13 35 -33 114 -50 198 -3 18 0 34 11 46 23 25
58 128 54 160 -7 56 -62 29 -74 -37 -8 -49 -54 -129 -64 -112 -4 7 -5 50 -2
95 5 91 0 126 -24 149 -21 21 -30 20 -55 -5z"/>
<path d="M2354 3896 c-3 -8 -2 -63 3 -122 6 -86 11 -109 23 -109 9 0 17 12 20
30 8 42 17 21 25 -57 7 -60 5 -67 -13 -77 -11 -6 -24 -20 -27 -31 -3 -11 -12
-20 -19 -20 -7 0 -21 -9 -31 -20 -16 -18 -17 -32 -10 -157 5 -76 7 -196 5
-268 -4 -119 -4 -610 -1 -898 2 -112 3 -118 24 -126 45 -17 49 -7 43 118 -25
515 -15 919 23 966 39 47 51 94 51 196 0 66 5 107 14 122 24 40 4 308 -25 344
-6 7 -20 13 -30 13 -14 0 -19 7 -19 29 0 16 -4 41 -10 55 -10 28 -37 35 -46
12z m65 -410 c9 -11 9 -20 2 -35 -14 -25 -14 -85 0 -134 12 -45 3 -97 -17 -97
-20 0 -28 43 -29 150 0 122 12 154 44 116z"/>
<path d="M1142 6828 c-6 -8 -13 -172 -17 -442 -5 -332 -9 -435 -20 -455 -13
-24 -76 -89 -119 -122 -10 -7 -55 -17 -100 -21 -45 -4 -97 -10 -116 -13 -19
-3 -75 -12 -125 -20 -193 -31 -224 -35 -261 -35 -51 0 -72 -13 -56 -33 9 -10
46 -16 130 -21 64 -4 155 -11 202 -17 47 -5 128 -13 181 -17 59 -4 104 -13
119 -23 26 -17 44 -71 65 -202 8 -49 17 -96 19 -105 3 -10 10 -77 16 -150 6
-72 15 -143 19 -156 5 -13 15 -104 21 -202 10 -149 15 -182 30 -198 18 -18 18
-18 34 6 21 33 35 182 36 380 0 107 4 171 14 200 8 24 17 89 20 145 15 254 60
312 256 325 58 3 128 12 155 18 28 6 107 12 177 12 135 1 165 10 138 43 -9 11
-34 15 -94 16 -44 0 -106 5 -136 10 -149 25 -178 30 -220 38 -76 15 -105 30
-142 74 -65 78 -99 159 -108 261 -18 195 -30 292 -39 326 -5 19 -15 109 -21
200 -13 186 -14 190 -33 190 -8 0 -19 -6 -25 -12z m51 -555 c8 -143 32 -283
55 -322 9 -16 30 -51 46 -78 61 -102 117 -133 242 -133 60 0 87 -11 63 -26 -6
-4 -62 -10 -123 -14 -128 -10 -134 -11 -202 -61 -48 -35 -53 -42 -67 -106 -23
-96 -39 -276 -46 -500 -3 -105 -9 -195 -13 -199 -5 -4 -8 4 -8 18 0 72 -33
423 -47 493 -8 44 -21 118 -27 165 -22 154 -38 165 -266 175 -159 7 -162 8
-124 22 48 18 146 32 238 32 67 1 69 2 133 53 36 28 79 70 94 91 l29 40 -4
224 c-3 124 -2 231 1 239 12 32 20 -2 26 -113z"/>
<path d="M6156 5615 c-13 -14 -16 -44 -16 -191 0 -138 -4 -191 -19 -252 -11
-42 -22 -88 -25 -102 -9 -36 -36 -64 -87 -91 -59 -30 -182 -56 -384 -80 -49
-6 -109 -13 -132 -16 -45 -5 -57 -25 -25 -42 19 -10 148 -7 199 4 22 5 48 1
88 -14 30 -12 70 -21 88 -21 116 -1 223 -80 245 -182 13 -58 28 -426 24 -556
-3 -68 -1 -83 13 -88 33 -13 40 15 51 194 14 211 29 335 48 388 7 21 16 59 20
84 9 59 44 120 82 142 21 12 61 20 115 24 46 3 102 12 124 19 60 20 120 28
217 27 64 -1 90 3 98 14 16 18 -3 44 -33 44 -11 0 -48 7 -81 15 -34 8 -104 19
-156 24 -175 18 -273 49 -332 106 -26 24 -30 34 -41 95 -3 14 -12 52 -21 85
-11 42 -16 102 -16 211 0 117 -3 154 -14 163 -11 9 -18 8 -30 -4z m40 -512
c18 -105 177 -183 372 -183 88 0 141 -14 91 -24 -34 -6 -180 -24 -264 -31
-132 -12 -180 -72 -210 -260 -9 -60 -19 -126 -23 -145 l-5 -35 -7 30 c-4 17
-8 80 -9 140 l-1 110 -45 52 c-25 28 -65 63 -89 77 -39 23 -56 26 -130 26 -47
0 -86 4 -86 8 0 5 46 17 102 26 108 19 151 37 211 89 31 26 39 41 44 77 11 83
37 107 49 43z"/>
<path d="M4550 3708 c-11 -12 -25 -40 -31 -63 -6 -22 -20 -57 -31 -78 -23 -46
-16 -80 15 -75 14 2 25 14 30 33 5 17 13 38 18 47 9 18 26 81 36 131 6 33 -9
35 -37 5z"/>
<path d="M3604 2986 c-10 -26 1 -51 23 -54 28 -4 50 32 32 54 -15 18 -48 18
-55 0z"/>
<path d="M3945 2904 c-42 -43 -72 -178 -43 -201 21 -18 38 -1 44 43 3 21 17
65 30 97 14 31 22 62 19 67 -9 15 -31 12 -50 -6z"/>
<path d="M3835 1776 c-67 -16 -95 -33 -95 -55 0 -34 79 -42 110 -11 14 14 33
20 65 20 45 0 70 20 49 39 -17 16 -79 19 -129 7z"/>
<path d="M3900 1643 c-50 -18 -100 -49 -100 -64 0 -23 50 -29 93 -10 23 10 56
23 72 28 23 6 30 14 30 33 0 31 -31 36 -95 13z"/>
<path d="M3990 1505 c-173 -37 -172 -77 3 -160 108 -51 116 -53 218 -58 58 -3
111 -2 118 3 18 10 7 40 -14 40 -9 0 -36 9 -61 21 -35 15 -58 19 -97 15 -44
-5 -60 -2 -102 22 -63 35 -69 57 -18 69 22 5 39 15 41 25 5 27 -28 36 -88 23z"/>
<path d="M3709 1457 c-37 -23 -93 -59 -124 -80 -86 -57 -251 -132 -317 -144
-38 -7 -54 -28 -37 -49 16 -20 79 -13 136 14 119 58 233 120 243 131 11 13
131 91 140 91 4 0 22 12 40 26 24 21 28 29 19 40 -17 21 -27 18 -100 -29z"/>
<path d="M3906 1221 c-33 -11 -63 -26 -67 -33 -13 -20 -10 -81 7 -155 9 -37
19 -117 23 -178 l6 -110 28 -3 c35 -4 34 -20 -3 -61 -17 -18 -34 -46 -37 -62
-5 -28 -4 -29 36 -29 33 0 41 3 41 19 0 10 9 30 20 44 11 14 20 31 20 39 0 8
6 23 14 34 14 19 15 18 43 -8 16 -16 34 -28 39 -28 17 0 94 -70 94 -86 0 -16
55 -20 65 -4 11 18 -23 66 -87 121 -115 100 -117 101 -170 94 -61 -9 -74 -1
-52 33 23 38 44 52 75 52 29 0 55 23 44 40 -3 5 -33 10 -66 10 -56 0 -59 1
-59 24 0 29 16 36 80 36 51 0 75 16 64 44 -8 21 -36 27 -99 24 -49 -3 -50 -2
-53 27 -5 53 17 70 92 70 73 0 100 15 75 40 -25 25 -106 28 -173 6z"/>
<path d="M3654 785 c-7 -19 -14 -48 -14 -66 0 -19 -10 -43 -25 -61 -31 -36
-33 -68 -5 -68 11 0 20 5 20 12 0 19 52 68 73 68 12 0 24 -13 35 -40 15 -36
20 -40 47 -38 27 3 30 6 27 33 -2 16 -9 41 -17 55 -7 14 -25 51 -39 83 -24 51
-30 57 -57 57 -25 0 -33 -6 -45 -35z"/>
<path d="M1776 694 c-8 -21 -9 -18 14 -44 11 -13 20 -31 20 -42 0 -11 7 -18
20 -18 29 0 26 45 -6 87 -28 37 -39 41 -48 17z"/>
</g>
</svg>
